<svg  xmlns="http://www.w3.org/2000/svg" xmlns:svg="http://www.w3.org/2000/svg" version="1.1" viewBox="0 -565 818 753"   width="818" height="753" >
  <g  transform="translate(-50,-728)">
    <path d="m 175,916 c 56,0 105,-37 119,-89 48,38 103,57 165,57 61,0 116,-19 164,-57 16,52 63,89 120,89 69,0 125,-56 125,-125 0,-69 -56,-125 -125,-125 -8,0 -17,2 -25,3 3,-20 5,-36 5,-49 0,-108 -67,-207 -172,-247 22,-25 33,-53 33,-85 0,-69 -57,-125 -125,-125 -68,0 -125,56 -125,125 0,33 11,61 33,85 -101,37 -172,134 -172,247 0,16 1,33 4,49 -8,-1 -16,-3 -24,-3 -68,0 -125,56 -125,125 0,70 57,125 125,125 z m 0,-57 c -37,0 -68,-31 -68,-68 0,-36 31,-67 68,-67 36,0 67,31 67,67 0,37 -31,68 -67,68 z m 284,-49 c -106,0 -190,-84 -190,-190 0,-106 84,-190 190,-190 106,0 190,84 190,190 0,106 -84,190 -190,190 z m 284,49 c -37,0 -68,-31 -68,-68 0,-36 31,-67 68,-67 36,0 67,31 67,67 0,37 -31,68 -67,68 z M 459,356 c -40,0 -68,-33 -68,-68 0,-36 31,-67 68,-67 36,0 67,31 67,67 0,35 -28,68 -67,68 z" />
  </g>
</svg>
